<?xml version="1.0" standalone="no"?>
<!DOCTYPE svg PUBLIC "-//W3C//DTD SVG 20010904//EN"
 "http://www.w3.org/TR/2001/REC-SVG-20010904/DTD/svg10.dtd">
<svg version="1.0" xmlns="http://www.w3.org/2000/svg"
 width="1500.000000pt" height="1351.000000pt" viewBox="0 0 1500.000000 1351.000000"
 preserveAspectRatio="xMidYMid meet">

<g transform="translate(0.000000,1351.000000) scale(0.100000,-0.100000)"
fill="#000000" stroke="none">
<path d="M5845 10084 c-33 -8 -96 -32 -140 -54 -257 -125 -407 -381 -391 -665
6 -114 24 -181 72 -275 44 -87 63 -114 126 -178 255 -263 667 -282 956 -45
103 84 197 241 228 380 26 119 16 284 -25 393 -74 200 -225 349 -433 426 -62
23 -92 27 -203 30 -93 3 -147 -1 -190 -12z m338 -234 c179 -68 307 -253 307
-444 0 -142 -47 -252 -148 -348 -282 -269 -737 -116 -804 270 -40 234 114 470
351 538 69 20 222 12 294 -16z"/>
<path d="M9122 10081 c-126 -32 -215 -84 -318 -186 -102 -101 -150 -182 -183
-305 -28 -105 -34 -185 -22 -271 24 -173 82 -291 206 -414 94 -95 194 -151
324 -184 358 -89 735 127 837 480 106 366 -86 739 -446 865 -103 36 -289 43
-398 15z m293 -215 c236 -63 391 -297 355 -533 -38 -248 -270 -433 -514 -410
-420 39 -592 560 -278 838 116 102 291 144 437 105z"/>
<path d="M7481 9479 c-247 -64 -435 -250 -506 -499 -26 -89 -26 -270 -1 -360
85 -296 343 -503 646 -517 137 -6 226 12 349 73 261 129 416 418 380 706 -21
169 -82 292 -203 413 -94 93 -199 154 -322 185 -101 26 -242 26 -343 -1z m294
-214 c84 -22 151 -62 215 -126 314 -317 69 -849 -375 -816 -272 20 -476 274
-436 544 28 191 168 347 354 398 70 18 170 18 242 0z"/>
<path d="M8812 8528 c-46 -12 -75 -51 -76 -103 -1 -38 4 -50 32 -77 l32 -33
508 -5 507 -5 48 -24 c69 -34 152 -114 181 -174 14 -29 29 -79 33 -112 5 -33
6 -383 3 -778 l-5 -719 -33 -29 c-22 -20 -43 -29 -67 -29 l-35 0 0 520 c0 565
0 563 -55 588 -46 21 -92 15 -127 -17 l-33 -29 -5 -709 c-5 -636 -9 -768 -39
-1298 -37 -657 -36 -652 -109 -697 -31 -19 -53 -23 -162 -26 -140 -4 -163 -13
-186 -67 -18 -44 -9 -87 27 -121 28 -27 36 -29 135 -32 210 -8 339 46 423 176
40 63 58 141 66 287 20 404 65 1188 67 1191 2 1 32 7 67 13 157 25 263 128
292 284 7 38 9 306 7 795 -4 657 -6 743 -21 795 -62 210 -222 369 -425 422
-52 13 -139 16 -542 18 -264 1 -493 -1 -508 -5z"/>
<path d="M5475 8523 c-55 -11 -147 -50 -202 -85 -110 -70 -195 -180 -245 -318
l-23 -65 0 -790 0 -790 26 -55 c54 -115 141 -181 266 -201 66 -11 73 -14 73
-34 0 -59 71 -1295 76 -1328 10 -62 61 -153 115 -201 92 -83 169 -106 351
-106 125 0 169 13 192 59 21 39 20 76 -1 112 -25 41 -53 49 -198 52 -150 2
-185 15 -222 83 -20 37 -24 76 -57 689 -34 615 -36 684 -36 1283 0 680 0 680
-51 716 -13 9 -42 16 -64 16 -22 0 -51 -7 -64 -16 -50 -36 -51 -46 -51 -594 0
-401 -3 -510 -12 -511 -51 -5 -95 22 -114 68 -18 43 -21 1421 -3 1505 25 115
101 213 207 265 l57 28 500 5 c376 4 505 8 522 18 35 20 53 53 53 100 0 35 -6
49 -29 73 l-29 29 -509 -1 c-279 -1 -517 -3 -528 -6z"/>
<path d="M7090 7914 c-204 -53 -363 -210 -426 -419 -15 -49 -19 -96 -19 -258
l0 -199 33 -29 c45 -41 111 -41 152 -1 l28 28 4 189 c4 166 8 197 27 248 30
76 111 164 188 202 l58 30 515 0 515 0 66 -32 c79 -39 140 -102 177 -181 25
-54 27 -67 32 -254 5 -191 6 -197 29 -222 48 -51 125 -51 169 -1 21 25 22 33
22 218 0 214 -9 267 -62 377 -43 89 -169 215 -258 258 -127 61 -134 62 -690
61 -407 0 -516 -3 -560 -15z"/>
<path d="M6785 6756 c-486 -94 -822 -527 -792 -1021 36 -589 446 -1124 1237
-1617 163 -102 380 -219 414 -225 24 -4 54 7 131 47 518 272 969 642 1238
1016 223 311 331 654 297 947 -47 402 -314 718 -705 832 -128 38 -312 45 -445
17 -172 -35 -331 -113 -450 -220 l-54 -49 -76 64 c-89 75 -258 163 -375 193
-103 28 -318 36 -420 16z m420 -244 c124 -43 188 -85 298 -195 95 -96 128
-117 174 -109 12 2 70 51 130 111 94 93 120 113 203 153 131 64 220 82 374 75
202 -9 351 -74 494 -215 295 -294 293 -751 -6 -1198 -234 -348 -646 -698
-1152 -977 l-65 -36 -139 81 c-640 368 -1043 752 -1217 1163 -83 195 -111 437
-70 609 74 310 344 547 655 575 108 9 225 -4 321 -37z"/>
<path d="M5113 4075 c-178 -32 -238 -65 -628 -341 -492 -349 -513 -364 -523
-364 -5 0 -33 34 -63 76 -60 85 -72 94 -127 94 -34 0 -64 -17 -233 -135 -219
-153 -249 -181 -249 -228 0 -74 74 -131 140 -108 17 5 90 52 162 104 73 51
138 96 144 100 8 4 106 -126 265 -351 139 -196 300 -424 359 -507 58 -82 162
-229 230 -325 68 -96 156 -220 195 -275 39 -55 74 -105 78 -111 3 -6 -52 -52
-134 -110 -144 -101 -169 -128 -169 -185 0 -48 56 -99 108 -99 35 0 62 16 218
127 99 69 189 133 201 142 12 9 26 26 32 39 23 48 13 84 -46 170 -66 95 -67
88 31 139 104 53 60 62 1526 -317 672 -174 652 -170 765 -149 87 16 154 50
294 148 187 131 502 352 1111 781 300 211 625 440 722 508 98 68 195 139 216
158 89 76 157 217 168 348 21 243 -147 478 -387 541 -112 30 -263 14 -367 -39
-37 -19 -473 -318 -824 -565 -77 -54 -88 -134 -27 -185 41 -35 94 -35 145 0
21 14 205 143 410 285 205 143 392 268 416 279 54 24 156 26 221 4 99 -34 182
-144 194 -256 7 -73 -17 -154 -65 -213 -26 -32 -205 -163 -622 -457 -322 -226
-796 -559 -1054 -741 -257 -181 -487 -340 -510 -353 -23 -13 -66 -26 -97 -30
-57 -7 10 -23 -1764 433 -137 35 -273 67 -301 70 -102 11 -253 -33 -358 -105
l-29 -20 -52 71 c-207 287 -738 1044 -739 1054 -1 16 794 579 884 625 148 76
288 85 475 29 55 -16 417 -122 805 -236 1259 -368 1325 -387 1361 -406 51 -26
124 -111 143 -166 62 -183 -66 -376 -259 -390 -50 -4 -110 8 -365 71 -733 180
-884 216 -915 216 -61 0 -115 -72 -99 -134 14 -58 44 -69 396 -156 774 -190
866 -212 933 -217 195 -14 402 104 489 281 103 207 60 442 -109 608 -91 89
-62 79 -1065 373 -162 47 -380 111 -485 142 -104 30 -334 98 -510 150 -428
127 -496 138 -662 108z"/>
</g>
</svg>
